<?xml version="1.0" encoding="UTF-8"?>
<svg id="Capa_1" data-name="Capa 1" xmlns="http://www.w3.org/2000/svg" xmlns:xlink="http://www.w3.org/1999/xlink" viewBox="0 0 144 206.98">
  <defs>
    <style>
      .cls-1 {
        fill: url(#Degradado_sin_nombre_6-2);
      }

      .cls-2 {
        fill: #fff;
      }

      .cls-3 {
        fill: url(#Degradado_sin_nombre_6);
      }

      .cls-4 {
        fill: url(#Degradado_sin_nombre_9);
      }

      .cls-5 {
        fill: url(#Degradado_sin_nombre_8);
      }

      .cls-6 {
        fill: url(#Degradado_sin_nombre_7);
      }
    </style>
    <linearGradient id="Degradado_sin_nombre_9" data-name="Degradado sin nombre 9" x1="89.17" y1="138.46" x2="97.67" y2="158.54" gradientUnits="userSpaceOnUse">
      <stop offset="0" stop-color="#686868"/>
      <stop offset="0" stop-color="#6f6f6f"/>
      <stop offset=".06" stop-color="#959595"/>
      <stop offset=".11" stop-color="#b6b6b6"/>
      <stop offset=".17" stop-color="#d1d1d1"/>
      <stop offset=".23" stop-color="#e5e5e5"/>
      <stop offset=".3" stop-color="#f3f3f3"/>
      <stop offset=".38" stop-color="#fcfcfc"/>
      <stop offset=".52" stop-color="#fff"/>
      <stop offset=".61" stop-color="#fbfbfb"/>
      <stop offset=".69" stop-color="#f1f1f1"/>
      <stop offset=".76" stop-color="#dfdfdf"/>
      <stop offset=".83" stop-color="#c6c6c6"/>
      <stop offset=".9" stop-color="#a6a6a6"/>
      <stop offset=".97" stop-color="#7f7f7f"/>
      <stop offset="1" stop-color="#686868"/>
    </linearGradient>
    <linearGradient id="Degradado_sin_nombre_8" data-name="Degradado sin nombre 8" x1="63.67" y1="103.49" x2="207.67" y2="103.49" gradientUnits="userSpaceOnUse">
      <stop offset="0" stop-color="#fff"/>
      <stop offset=".41" stop-color="#fdfdfd"/>
      <stop offset=".56" stop-color="#f6f6f6"/>
      <stop offset=".67" stop-color="#eaeaea"/>
      <stop offset=".76" stop-color="#d9d9d9"/>
      <stop offset=".83" stop-color="#c3c3c3"/>
      <stop offset=".89" stop-color="#a8a8a8"/>
      <stop offset=".95" stop-color="#888"/>
      <stop offset="1" stop-color="#686868"/>
    </linearGradient>
    <linearGradient id="Degradado_sin_nombre_7" data-name="Degradado sin nombre 7" x1="116.76" y1="110.51" x2="114.01" y2="123.26" gradientUnits="userSpaceOnUse">
      <stop offset="0" stop-color="#fff"/>
      <stop offset=".15" stop-color="#fafafa"/>
      <stop offset=".31" stop-color="#ededed"/>
      <stop offset=".49" stop-color="#d7d7d7"/>
      <stop offset=".66" stop-color="#b8b8b8"/>
      <stop offset=".84" stop-color="#919191"/>
      <stop offset="1" stop-color="#686868"/>
    </linearGradient>
    <linearGradient id="Degradado_sin_nombre_6" data-name="Degradado sin nombre 6" x1="113.05" y1="168.51" x2="119.92" y2="179.26" gradientUnits="userSpaceOnUse">
      <stop offset="0" stop-color="#686868"/>
      <stop offset=".02" stop-color="#6f6f6f"/>
      <stop offset=".11" stop-color="#959595"/>
      <stop offset=".21" stop-color="#b6b6b6"/>
      <stop offset=".32" stop-color="#d1d1d1"/>
      <stop offset=".44" stop-color="#e5e5e5"/>
      <stop offset=".58" stop-color="#f3f3f3"/>
      <stop offset=".74" stop-color="#fcfcfc"/>
      <stop offset="1" stop-color="#fff"/>
    </linearGradient>
    <linearGradient id="Degradado_sin_nombre_6-2" data-name="Degradado sin nombre 6" x1="14.88" y1="103.16" x2="32.88" y2="103.16" xlink:href="#Degradado_sin_nombre_6"/>
  </defs>
  <path class="cls-4" d="M108,152.98c-7.99,0-15.17,3.47-20.11,9-4.4-4.9-7.02-11.41-6.88-18.54v-.02c7.27-.91,14.2-2.9,20.63-5.8-1.63,1.63-2.64,3.88-2.64,6.36,0,4.96,4.04,9,9,9Z"/>
  <path class="cls-5" d="M143.94,69.08c.81,20.6-7.04,39.37-20.21,52.97-4.43-3.2-9.86-5.07-15.73-5.07-2.85,0-5.59,.44-8.17,1.26,16.05-9.69,26.67-27.48,26.15-47.67-.76-29.45-24.53-52.59-53.98-52.59S18,42.2,18,71.98v126c0,4.97-4.03,9-9,9h0c-4.97,0-9-4.03-9-9V71.98C0,31.62,33.7-.02,73.8,0c37.74,.02,68.67,31.37,70.15,69.08Z"/>
  <path class="cls-6" d="M131.64,112.31c-2.35,3.48-5,6.73-7.91,9.74-4.43-3.2-9.86-5.07-15.73-5.07-2.85,0-5.59,.44-8.17,1.26,4.42-2.67,8.44-5.96,11.92-9.75,1.7-.33,3.45-.51,5.25-.51,5.4,0,10.42,1.58,14.64,4.33Z"/>
  <path class="cls-2" d="M135,143.98c0,6.92-2.6,13.22-6.89,18-2.98,3.35-6.79,5.94-11.11,7.46-2.78,.99-5.79,1.53-8.92,1.54-3.77,.01-7.26,2.21-8.52,5.77-2.23,6.31,2.43,12.23,8.43,12.23,4.96,0,9-4.04,9-9v25.46c-3.15,1.12-6.58,1.66-10.16,1.52-14.16-.59-25.6-12.34-25.84-26.51-.12-7.1,2.5-13.58,6.89-18.47,4.9-5.48,12-8.94,19.91-9,4.09-.03,7.82-2.59,8.87-6.54,1.61-6.01-2.91-11.46-8.67-11.46-.44,0-.87,.03-1.29,.09-1.96,.28-3.72,1.2-5.06,2.54h-.01c-6.43,2.91-13.36,4.9-20.62,5.81-2.95,.37-5.97,.56-9.02,.56-.38,0-.75,0-1.13-.01-7.82-.12-15.34-1.49-22.36-3.91-3.94-1.36-7.72-3.05-11.31-5.04-6.68-3.69-12.71-8.42-17.87-13.96-.46-.48-.9-.97-1.33-1.47v-47.61c0,19.26,10.13,36.2,25.35,45.75,4.28,2.7,8.97,4.8,13.94,6.22,4.68,1.32,9.61,2.03,14.71,2.03,7.19,0,14.05-1.41,20.32-3.97,2.61-1.06,5.12-2.33,7.51-3.77,2.58-.82,5.32-1.26,8.17-1.26,5.87,0,11.3,1.87,15.73,5.07,1.6,1.14,3.08,2.46,4.38,3.93,4.29,4.78,6.89,11.08,6.89,18Z"/>
  <path class="cls-3" d="M135,179.98c0,11.75-7.51,21.75-18,25.46v-25.46c0-4.96-4.04-9-9-9,3.16,0,6.19-.54,9-1.54,4.32-1.52,8.13-4.11,11.11-7.46,4.29,4.78,6.89,11.08,6.89,18Z"/>
  <path class="cls-1" d="M36,112.18v22.16c-6.2-3.58-11.82-8.07-16.67-13.28-.46-.48-.9-.97-1.33-1.47v-47.61c0,15.96,6.96,30.33,18,40.2Z"/>
</svg>